<svg preserveAspectRatio="none" width="100%" height="100%" overflow="visible" style="display: block;" viewBox="0 0 14.5533 14.6667" fill="none" xmlns="http://www.w3.org/2000/svg">
<path id="Vector" d="M5.22 11.4133L5.88667 8.66667H2C1.79301 8.66667 1.58886 8.61847 1.40372 8.5259C1.21857 8.43333 1.05753 8.29893 0.933333 8.13333C0.809137 7.96774 0.725202 7.7755 0.688174 7.57185C0.651146 7.36819 0.662042 7.15871 0.72 6.96L2.27333 1.62667C2.35411 1.34971 2.52254 1.10643 2.75333 0.933333C2.98413 0.760237 3.26484 0.666667 3.55333 0.666667H12.5533C12.907 0.666667 13.2461 0.807142 13.4961 1.05719C13.7462 1.30724 13.8867 1.64638 13.8867 2V7.33333C13.8867 7.68696 13.7462 8.02609 13.4961 8.27614C13.2461 8.52619 12.907 8.66667 12.5533 8.66667H10.7133C10.4653 8.6668 10.2222 8.73613 10.0114 8.86685C9.80055 8.99758 9.63039 9.18452 9.52 9.40667L7.22 14C6.90562 13.9961 6.59617 13.9212 6.3148 13.7809C6.03342 13.6407 5.78738 13.4386 5.59506 13.1899C5.40275 12.9411 5.26912 12.6522 5.20418 12.3445C5.13923 12.0369 5.14464 11.7186 5.22 11.4133Z" stroke="var(--stroke-0, #5A6672)" stroke-width="1.33333" stroke-linecap="round" stroke-linejoin="round"/>
</svg>
