<svg preserveAspectRatio="none" width="100%" height="100%" overflow="visible" style="display: block;" viewBox="0 0 18.3466 16.6783" fill="none" xmlns="http://www.w3.org/2000/svg">
<path id="Vector" d="M17.29 13.3449L10.6233 1.67825C10.478 1.42175 10.2672 1.2084 10.0124 1.05997C9.7577 0.911539 9.46815 0.833333 9.17333 0.833333C8.87851 0.833333 8.58896 0.911539 8.33423 1.05997C8.07949 1.2084 7.86869 1.42175 7.72333 1.67825L1.05666 13.3449C0.909732 13.5994 0.832687 13.8882 0.833337 14.182C0.833988 14.4758 0.912311 14.7643 1.06037 15.0181C1.20843 15.2719 1.42095 15.4821 1.67641 15.6273C1.93187 15.7725 2.22117 15.8476 2.515 15.8449H15.8483C16.1407 15.8446 16.4279 15.7674 16.6811 15.621C16.9342 15.4746 17.1443 15.2642 17.2904 15.0108C17.4365 14.7575 17.5134 14.4702 17.5133 14.1778C17.5132 13.8854 17.4362 13.5982 17.29 13.3449Z" stroke="var(--stroke-0, #F59F0A)" stroke-width="1.66667" stroke-linecap="round" stroke-linejoin="round"/>
</svg>
