<svg preserveAspectRatio="none" width="100%" height="100%" overflow="visible" style="display: block;" viewBox="0 0 24.5 23.0234" fill="none" xmlns="http://www.w3.org/2000/svg">
<g id="Group 13912">
<path id="Vector 2" d="M12 3.52344H3C1.89543 3.52344 1 4.41887 1 5.52344V20.0234C1 21.128 1.89543 22.0234 3 22.0234H17.5C18.6046 22.0234 19.5 21.128 19.5 20.0234V11.0234" stroke="var(--stroke-0, #4E8FE6)" stroke-width="2"/>
<path id="Vector 3" d="M11.711 11.6663L6.61577 8.40567C6.34953 8.23529 6.01353 8.42604 6.06292 8.73825C6.43816 11.1105 8.44868 14.9311 10.8037 17.5801C11.2419 18.073 12.02 17.9511 12.334 17.3711C15.4399 11.6347 18.4347 6.28328 22.6041 1.86528C22.7738 1.68538 22.5111 1.37122 22.3101 1.51544C15.0008 6.76055 12.4323 10.611 11.711 11.6663Z" fill="var(--fill-0, black)"/>
</g>
</svg>
