<svg preserveAspectRatio="none" width="100%" height="100%" overflow="visible" style="display: block;" viewBox="0 0 34.895 9.09" fill="none" xmlns="http://www.w3.org/2000/svg">
<path id="Vector" fill-rule="evenodd" clip-rule="evenodd" d="M3.213 2.25C3.856 2.25 4.419 2.39 4.903 2.668C5.38538 2.94553 5.77449 3.36005 6.021 3.859C6.287 4.372 6.421 4.974 6.421 5.666C6.421 6.358 6.287 6.962 6.021 7.478C5.77482 7.97769 5.38568 8.39294 4.903 8.671C4.419 8.949 3.856 9.089 3.213 9.089C2.57 9.089 2.005 8.949 1.518 8.671C1.03423 8.39213 0.643031 7.97729 0.393 7.478C0.131 6.962 0 6.358 0 5.666C0 4.974 0.131 4.372 0.393 3.859C0.643253 3.36038 1.03444 2.94624 1.518 2.668C2.005 2.389 2.57 2.25 3.213 2.25ZM3.213 3.675C2.943 3.675 2.709 3.751 2.513 3.903C2.32 4.05 2.173 4.273 2.07 4.573C1.968 4.868 1.917 5.233 1.917 5.666C1.917 6.101 1.967 6.467 2.07 6.766C2.172 7.066 2.32 7.29 2.513 7.442C2.709 7.589 2.943 7.662 3.213 7.662C3.483 7.662 3.715 7.589 3.907 7.442C4.1 7.29 4.248 7.067 4.35 6.772C4.453 6.473 4.503 6.105 4.503 5.666C4.503 5.016 4.391 4.521 4.166 4.185C4.06595 4.02376 3.92519 3.89173 3.75789 3.8022C3.59059 3.71267 3.40265 3.6688 3.213 3.675ZM15.595 2.25C16.205 2.25 16.722 2.35 17.144 2.55C17.566 2.747 17.884 3.03 18.097 3.399C18.314 3.767 18.422 4.208 18.422 4.719V7.423C18.422 7.713 18.442 7.985 18.484 8.235C18.528 8.48 18.592 8.635 18.674 8.701V9H16.739C16.6906 8.77425 16.6556 8.54586 16.634 8.316C16.6262 8.2401 16.6195 8.16409 16.614 8.088C16.5674 8.15839 16.517 8.22616 16.463 8.291C16.258 8.533 15.993 8.728 15.67 8.875C15.35 9.018 14.985 9.09 14.576 9.09C14.17 9.09 13.806 9.01 13.482 8.85C13.171 8.69808 12.909 8.46174 12.726 8.168C12.5412 7.85131 12.4477 7.48959 12.456 7.123C12.456 6.517 12.634 6.054 12.991 5.735C13.347 5.411 13.861 5.201 14.533 5.102L15.658 4.942C15.883 4.91 16.061 4.868 16.192 4.819C16.3047 4.78243 16.4046 4.71443 16.48 4.623C16.5448 4.52659 16.5774 4.41209 16.573 4.296C16.574 4.16539 16.5357 4.0375 16.463 3.929C16.3863 3.80855 16.2746 3.71436 16.143 3.659C16.003 3.589 15.833 3.554 15.633 3.554C15.313 3.554 15.057 3.637 14.865 3.805C14.672 3.969 14.567 4.195 14.551 4.481H12.628C12.644 4.047 12.775 3.661 13.021 3.326C13.271 2.986 13.617 2.722 14.06 2.534C14.502 2.345 15.014 2.25 15.595 2.25ZM16.585 5.748C16.5198 5.80389 16.4475 5.85096 16.37 5.888C16.1834 5.97106 15.9872 6.03085 15.786 6.066L15.313 6.158C14.998 6.219 14.76 6.314 14.6 6.441C14.445 6.568 14.367 6.746 14.367 6.975C14.367 7.205 14.451 7.387 14.619 7.522C14.787 7.657 15.002 7.725 15.264 7.725C15.526 7.725 15.758 7.667 15.958 7.552C16.159 7.434 16.313 7.27 16.419 7.062C16.529 6.852 16.585 6.614 16.585 6.348V5.748ZM21.111 3.373C21.176 3.248 21.249 3.13 21.332 3.024C21.529 2.774 21.769 2.584 22.051 2.453C22.333 2.318 22.651 2.25 23.003 2.25C23.531 2.25 23.991 2.388 24.38 2.662C24.769 2.937 25.068 3.332 25.276 3.848C25.486 4.36 25.59 4.968 25.59 5.672C25.59 6.372 25.483 6.981 25.27 7.497C25.057 8.009 24.752 8.403 24.355 8.677C23.962 8.952 23.501 9.089 22.972 9.089C22.62 9.089 22.305 9.027 22.026 8.905C21.7506 8.78088 21.5101 8.59056 21.326 8.351C21.2351 8.23164 21.1567 8.10331 21.092 7.968V9H19.249V0H21.111V3.373ZM22.395 3.669C22.121 3.669 21.885 3.754 21.688 3.922C21.496 4.085 21.35 4.319 21.252 4.622C21.1477 4.96202 21.0977 5.31639 21.104 5.672C21.104 6.078 21.154 6.431 21.252 6.73C21.35 7.029 21.495 7.26 21.688 7.424C21.885 7.588 22.121 7.67 22.395 7.67C22.674 7.67 22.907 7.588 23.095 7.424C23.288 7.26 23.431 7.029 23.525 6.73C23.624 6.43 23.673 6.078 23.673 5.672C23.673 5.267 23.623 4.915 23.526 4.616C23.431 4.317 23.288 4.086 23.096 3.922C22.9031 3.75207 22.652 3.66165 22.395 3.669ZM31.811 2.25C32.413 2.25 32.947 2.381 33.415 2.643C33.881 2.905 34.244 3.286 34.501 3.786C34.764 4.286 34.895 4.883 34.895 5.58C34.895 5.83 34.893 6.029 34.889 6.176H30.405C30.423 6.464 30.476 6.714 30.569 6.926C30.6685 7.16981 30.8397 7.37765 31.06 7.522C31.274 7.652 31.525 7.718 31.817 7.718C32.136 7.718 32.4 7.636 32.609 7.472C32.818 7.305 32.949 7.069 33.002 6.766H34.864C34.8175 7.21408 34.6498 7.64102 34.379 8.001C34.106 8.35752 33.7433 8.63529 33.328 8.806C32.889 8.994 32.379 9.089 31.798 9.089C31.143 9.089 30.573 8.964 30.09 8.714C29.605 8.458 29.2104 8.05894 28.96 7.571C28.693 7.063 28.56 6.434 28.56 5.684C28.56 4.972 28.7 4.357 28.978 3.841C29.2377 3.34045 29.6395 2.92783 30.133 2.655C30.624 2.385 31.184 2.25 31.811 2.25ZM31.767 3.595C31.493 3.595 31.251 3.663 31.042 3.798C30.8267 3.94211 30.6598 4.1477 30.563 4.388C30.4982 4.54777 30.4538 4.7151 30.431 4.886H32.993C32.9806 4.67908 32.934 4.47565 32.855 4.284C32.7745 4.0717 32.628 3.89084 32.437 3.768C32.2345 3.64808 32.0022 3.58809 31.767 3.595Z" fill="var(--fill-0, #FCFBF8)"/>
</svg>
