<svg preserveAspectRatio="none" width="100%" height="100%" overflow="visible" style="display: block;" viewBox="0 0 42 16" fill="none" xmlns="http://www.w3.org/2000/svg">
<g id="Group 5">
<path id="Vector" d="M12.9524 16H4.04762V5.6L9.71429 0L10.7262 1C10.8206 1.09333 10.8982 1.22 10.9589 1.38C11.0196 1.54 11.05 1.69333 11.05 1.84V2.12L10.1595 5.6H15.381C15.8127 5.6 16.1905 5.76 16.5143 6.08C16.8381 6.4 17 6.77333 17 7.2V8.8C17 8.89333 16.9865 8.99333 16.9595 9.1C16.9325 9.20667 16.9056 9.30667 16.8786 9.4L14.45 15.04C14.3286 15.3067 14.1262 15.5333 13.8429 15.72C13.5595 15.9067 13.2627 16 12.9524 16ZM5.66667 14.4H12.9524L15.381 8.8V7.2H8.09524L9.1881 2.8L5.66667 6.28V14.4ZM4.04762 5.6V7.2H1.61905V14.4H4.04762V16H0V5.6H4.04762Z" fill="var(--fill-0, #9297A1)"/>
<path id="Vector_2" d="M29.0476 3.57628e-07H37.9524V10.4L32.2857 16L31.2738 15C31.1794 14.9067 31.1018 14.78 31.0411 14.62C30.9804 14.46 30.95 14.3067 30.95 14.16V13.88L31.8405 10.4H26.619C26.1873 10.4 25.8095 10.24 25.4857 9.92C25.1619 9.6 25 9.22667 25 8.8V7.2C25 7.10667 25.0135 7.00667 25.0405 6.9C25.0675 6.79333 25.0944 6.69333 25.1214 6.6L27.55 0.96C27.6714 0.693334 27.8738 0.466667 28.1571 0.28C28.4405 0.0933337 28.7373 3.57628e-07 29.0476 3.57628e-07ZM36.3333 1.6H29.0476L26.619 7.2V8.8H33.9048L32.8119 13.2L36.3333 9.72V1.6ZM37.9524 10.4V8.8H40.381V1.6H37.9524V3.57628e-07H42V10.4H37.9524Z" fill="var(--fill-0, #9297A1)"/>
</g>
</svg>
