<svg preserveAspectRatio="none" width="100%" height="100%" overflow="visible" style="display: block;" viewBox="0 0 7.00628 7.00628" fill="none" xmlns="http://www.w3.org/2000/svg">
<path id="Vector" d="M6.14663 0.146632C6.19312 0.100209 6.2483 0.0633985 6.30901 0.0383C6.36972 0.0132016 6.43479 0.000307384 6.50048 0.000353813C6.56618 0.000400242 6.63123 0.0133862 6.69191 0.0385704C6.75259 0.0637546 6.80771 0.100644 6.85413 0.147132C6.90055 0.19362 6.93737 0.248796 6.96246 0.30951C6.98756 0.370225 7.00046 0.435288 7.00041 0.500985C7.00036 0.566683 6.98738 0.631728 6.96219 0.692407C6.93701 0.753085 6.90012 0.80821 6.85363 0.854632L4.20763 3.50063L6.85363 6.14663C6.90139 6.19276 6.93948 6.24793 6.96568 6.30893C6.99189 6.36993 7.00568 6.43554 7.00626 6.50193C7.00683 6.56832 6.99418 6.63416 6.96904 6.69561C6.9439 6.75706 6.90678 6.81288 6.85983 6.85983C6.81288 6.90678 6.75706 6.9439 6.69561 6.96904C6.63416 6.99418 6.56832 7.00683 6.50193 7.00626C6.43554 7.00568 6.36993 6.99189 6.30893 6.96568C6.24793 6.93948 6.19276 6.90139 6.14663 6.85363L3.50063 4.20763L0.854632 6.85363C0.80821 6.90012 0.753085 6.93701 0.692407 6.96219C0.631728 6.98738 0.566683 7.00036 0.500985 7.00041C0.435288 7.00046 0.370225 6.98756 0.30951 6.96246C0.248796 6.93737 0.19362 6.90055 0.147132 6.85413C0.0532453 6.76038 0.000447581 6.63317 0.000353813 6.50048C0.000307384 6.43479 0.0132016 6.36972 0.0383 6.30901C0.0633985 6.2483 0.100209 6.19312 0.146632 6.14663L2.79363 3.50063L0.146632 0.854632C0.0527451 0.760745 0 0.633408 0 0.500632C0 0.367856 0.0527451 0.240518 0.146632 0.146632C0.240518 0.0527451 0.367856 0 0.500632 0C0.633408 0 0.760745 0.0527451 0.854632 0.146632L3.50063 2.79363L6.14663 0.146632Z" fill="var(--fill-0, #DCDAD5)"/>
</svg>
