<svg preserveAspectRatio="none" width="100%" height="100%" overflow="visible" style="display: block;" viewBox="0 0 14.5533 14.6667" fill="none" xmlns="http://www.w3.org/2000/svg">
<path id="Vector" d="M9.33333 3.25333L8.66667 6H12.5533C12.7603 6 12.9645 6.04819 13.1496 6.14076C13.3348 6.23333 13.4958 6.36774 13.62 6.53333C13.7442 6.69893 13.8281 6.89117 13.8652 7.09482C13.9022 7.29847 13.8913 7.50795 13.8333 7.70667L12.28 13.04C12.1992 13.317 12.0308 13.5602 11.8 13.7333C11.5692 13.9064 11.2885 14 11 14H2C1.64638 14 1.30724 13.8595 1.05719 13.6095C0.807142 13.3594 0.666667 13.0203 0.666667 12.6667V7.33333C0.666667 6.97971 0.807142 6.64057 1.05719 6.39053C1.30724 6.14048 1.64638 6 2 6H3.84C4.08806 5.99987 4.33116 5.93054 4.54197 5.79981C4.75278 5.66909 4.92295 5.48214 5.03333 5.26L7.33333 0.666667C7.64772 0.67056 7.95716 0.745446 8.23854 0.885731C8.51991 1.02602 8.76595 1.22807 8.95827 1.4768C9.15059 1.72553 9.28421 2.01451 9.34916 2.32214C9.41411 2.62976 9.4087 2.94809 9.33333 3.25333Z" stroke="var(--stroke-0, #10B77F)" stroke-width="1.33333" stroke-linecap="round" stroke-linejoin="round"/>
</svg>
