<svg preserveAspectRatio="none" width="100%" height="100%" overflow="visible" style="display: block;" viewBox="0 0 13.75 13.75" fill="none" xmlns="http://www.w3.org/2000/svg">
<path id="&#240;&#159;&#142;&#168;Color" fill-rule="evenodd" clip-rule="evenodd" d="M13.75 6.875C13.75 10.672 10.672 13.75 6.875 13.75C3.07804 13.75 0 10.672 0 6.875C0 3.07804 3.07804 0 6.875 0C10.672 0 13.75 3.07804 13.75 6.875ZM12.5 6.875C12.5 9.9816 9.9816 12.5 6.875 12.5C3.7684 12.5 1.25 9.9816 1.25 6.875C1.25 3.7684 3.7684 1.25 6.875 1.25C9.9816 1.25 12.5 3.7684 12.5 6.875ZM6.15829 3.35699C6.0111 3.51165 5.9375 3.69359 5.9375 3.90284C5.9375 4.11663 6.01336 4.30085 6.16508 4.45551C6.3168 4.61017 6.50136 4.6875 6.71875 4.6875C6.93161 4.6875 7.11504 4.61131 7.26902 4.45892C7.42301 4.30654 7.5 4.12118 7.5 3.90284C7.5 3.6845 7.42301 3.50027 7.26902 3.35016C7.11504 3.20005 6.93161 3.125 6.71875 3.125C6.4923 3.125 6.30548 3.20233 6.15829 3.35699ZM8.4375 10.3125V9.375H7.5V6.25V5.3125H6.25H5.3125V6.25H6.25V9.375H5.3125V10.3125H8.4375Z" fill="var(--fill-0, #033493)"/>
</svg>
