<svg preserveAspectRatio="none" width="100%" height="100%" overflow="visible" style="display: block;" viewBox="0 0 18.3353 18.3353" fill="none" xmlns="http://www.w3.org/2000/svg">
<path id="Vector" d="M11.2798 17.2404C11.3115 17.3193 11.3665 17.3866 11.4376 17.4334C11.5086 17.4801 11.5922 17.504 11.6772 17.5018C11.7622 17.4996 11.8445 17.4715 11.913 17.4212C11.9816 17.3709 12.0331 17.3008 12.0607 17.2204L17.4773 1.38708C17.504 1.31324 17.5091 1.23334 17.492 1.15671C17.4749 1.08008 17.4364 1.00991 17.3809 0.954396C17.3253 0.898883 17.2552 0.860328 17.1785 0.843241C17.1019 0.826155 17.022 0.831245 16.9482 0.857915L1.11484 6.27458C1.03442 6.30216 0.964359 6.35368 0.914065 6.42222C0.86377 6.49077 0.835647 6.57306 0.83347 6.65805C0.831293 6.74304 0.855167 6.82666 0.901886 6.89769C0.948606 6.96872 1.01594 7.02376 1.09484 7.05541L7.70317 9.70541C7.91208 9.78905 8.10188 9.91413 8.26114 10.0731C8.4204 10.2321 8.54582 10.4217 8.62984 10.6304L11.2798 17.2404Z" stroke="var(--stroke-0, #5A6672)" stroke-width="1.66667" stroke-linecap="round" stroke-linejoin="round"/>
</svg>
