<svg preserveAspectRatio="none" width="100%" height="100%" overflow="visible" style="display: block;" viewBox="0 0 14.6773 13.3427" fill="none" xmlns="http://www.w3.org/2000/svg">
<path id="Vector" d="M13.832 10.6759L8.49866 1.3426C8.38237 1.1374 8.21373 0.966723 8.00995 0.847977C7.80616 0.729231 7.57452 0.666667 7.33866 0.666667C7.10281 0.666667 6.87117 0.729231 6.66738 0.847977C6.4636 0.966723 6.29495 1.1374 6.17866 1.3426L0.845331 10.6759C0.727785 10.8795 0.666149 11.1105 0.66667 11.3456C0.667191 11.5807 0.729849 11.8114 0.848295 12.0145C0.966741 12.2175 1.13676 12.3857 1.34113 12.5018C1.54549 12.618 1.77694 12.678 2.012 12.6759H12.6787C12.9126 12.6757 13.1423 12.6139 13.3449 12.4968C13.5474 12.3797 13.7155 12.2113 13.8323 12.0087C13.9492 11.806 14.0107 11.5762 14.0106 11.3423C14.0106 11.1083 13.949 10.8785 13.832 10.6759Z" stroke="var(--stroke-0, #735726)" stroke-width="1.33333" stroke-linecap="round" stroke-linejoin="round"/>
</svg>
